<svg width="36" height="27" viewBox="0 0 36 27" fill="none" xmlns="http://www.w3.org/2000/svg">
<path d="M3.59996 26.1C2.11138 26.1 0.899963 24.8886 0.899963 23.4V3.60001C0.899963 2.11142 2.11138 0.900009 3.59996 0.900009H12.9725L16.5726 4.50001H32.4C33.8886 4.50001 35.1 5.71142 35.1 7.20001V23.4C35.1 24.8886 33.8886 26.1 32.4 26.1H3.59996Z" fill="#FEDEA1"/>
<path d="M32.4 3.6H16.9458L13.8732 0.527414C13.5354 0.189633 13.0776 0 12.6 0H3.6C1.61522 0 0 1.61522 0 3.6V23.4C0 25.3848 1.61522 27 3.6 27H32.4C34.3848 27 36 25.3848 36 23.4V7.2C36 5.21522 34.3848 3.6 32.4 3.6ZM34.2 23.4C34.2 24.3942 33.3942 25.2 32.4 25.2H3.6C2.60578 25.2 1.8 24.3942 1.8 23.4V3.6C1.8 2.60578 2.60578 1.8 3.6 1.8H12.6L16.2 5.4H32.4C33.3942 5.4 34.2 6.20578 34.2 7.2V23.4Z" fill="#573A32"/>
</svg>
